<?xml version="1.0" encoding="UTF-8" standalone="no"?>
<svg
   xmlns:dc="http://purl.org/dc/elements/1.1/"
   xmlns:cc="http://creativecommons.org/ns#"
   xmlns:rdf="http://www.w3.org/1999/02/22-rdf-syntax-ns#"
   xmlns:svg="http://www.w3.org/2000/svg"
   xmlns="http://www.w3.org/2000/svg"
   id="svg1736"
   version="1.1"
   viewBox="0 0 48 48"
   height="48mm"
   width="48mm">
  <defs
     id="defs1730" />
  <metadata
     id="metadata1733">
    <rdf:RDF>
      <cc:Work
         rdf:about="">
        <dc:format>image/svg+xml</dc:format>
        <dc:type
           rdf:resource="http://purl.org/dc/dcmitype/StillImage" />
        <dc:title></dc:title>
      </cc:Work>
    </rdf:RDF>
  </metadata>
  <g
     transform="translate(0,-249)"
     id="layer1">
    <g
       transform="matrix(4.1077658,0,0,4.1075751,235.04834,-699.38516)"
       id="g1569">
      <path
         style="fill:#5d5d5d;stroke-width:0.35277778"
         d="m -52.815369,231.06608 c 1.897944,-0.48683 3.944055,0.0353 5.386916,1.3582 1.788584,1.61925 2.388306,4.29683 1.4605,6.52639 -0.896055,2.22602 -3.192639,3.72886 -5.598583,3.61597 -3.026833,-0.0459 -5.602111,-2.62467 -5.647972,-5.64797 -0.127,-2.69875 1.785055,-5.20348 4.399139,-5.85259 z"
         id="path1535" />
      <path
         style="fill:#ffffff;stroke-width:0.35277778"
         d="m -52.794203,231.84572 c 2.638778,-0.83608 5.559778,0.83609 6.304139,3.47134 0.839611,2.63877 -0.843139,5.55977 -3.474861,6.30413 -2.63525,0.83609 -5.559778,-0.83961 -6.304139,-3.47486 -0.836083,-2.63525 0.839611,-5.5633 3.474861,-6.30061 z"
         id="path1537" />
      <path
         style="fill:#5d5d5d;stroke-width:0.35277778"
         d="m -53.362175,232.56892 c 0.92075,0.80433 1.661584,1.70744 2.779889,2.30011 0.963083,0.54328 2.187222,0.6985 3.220861,1.06186 0.529167,0.0423 0.627945,0.93486 0.22225,1.13947 -1.097139,0.47272 -2.286,0.59972 -3.344333,1.27353 -1.061861,0.62089 -1.718028,1.55222 -2.638778,2.31069 -0.359833,0.42334 -0.991305,-0.0953 -1.008944,-0.53975 0.162277,-0.96308 0.511527,-1.86619 0.596194,-2.85044 0.141111,-1.25942 -0.246944,-2.35303 -0.529167,-3.54542 -0.225777,-0.73025 0.229306,-0.78669 0.702028,-1.15005 z"
         id="path1539" />
      <path
         style="fill:#ffffff;stroke-width:0.35277778"
         d="m -53.344536,233.61667 c 1.499306,1.6898 3.192639,2.44827 5.36575,2.94216 -2.3495,0.62795 -3.742972,1.46756 -5.355167,3.28084 0.751417,-2.27895 0.779639,-3.95111 -0.01058,-6.223 z"
         id="path1541" />
    </g>
  </g>
</svg>
